<?xml version="1.0" encoding="UTF-8" standalone="no"?>
<!-- Created with Inkscape (http://www.inkscape.org/) -->

<svg
   xmlns:dc="http://purl.org/dc/elements/1.1/"
   xmlns:cc="http://creativecommons.org/ns#"
   xmlns:rdf="http://www.w3.org/1999/02/22-rdf-syntax-ns#"
   xmlns:svg="http://www.w3.org/2000/svg"
   xmlns="http://www.w3.org/2000/svg"
   xmlns:sodipodi="http://sodipodi.sourceforge.net/DTD/sodipodi-0.dtd"
   xmlns:inkscape="http://www.inkscape.org/namespaces/inkscape"
   version="1.1"
   id="svg104982"
   xml:space="preserve"
   width="800"
   height="800"
   viewBox="0 0 800 800"
   sodipodi:docname="logo-custom-object-6-publicdomainvectors.org.svg"
   inkscape:version="0.92.4 (5da689c313, 2019-01-14)"><metadata
     id="metadata104988"><rdf:RDF><cc:Work
         rdf:about=""><dc:format>image/svg+xml</dc:format><dc:type
           rdf:resource="http://purl.org/dc/dcmitype/StillImage" /><dc:title></dc:title></cc:Work></rdf:RDF></metadata><defs
     id="defs104986"><clipPath
       clipPathUnits="userSpaceOnUse"
       id="clipPath104998"><path
         d="M 0,600 H 600 V 0 H 0 Z"
         id="path104996"
         inkscape:connector-curvature="0" /></clipPath></defs><sodipodi:namedview
     pagecolor="#ffffff"
     bordercolor="#666666"
     borderopacity="1"
     objecttolerance="10"
     gridtolerance="10"
     guidetolerance="10"
     inkscape:pageopacity="0"
     inkscape:pageshadow="2"
     inkscape:window-width="640"
     inkscape:window-height="480"
     id="namedview104984"
     showgrid="false"
     inkscape:zoom="0.38142578"
     inkscape:cx="400"
     inkscape:cy="400"
     inkscape:window-x="0"
     inkscape:window-y="0"
     inkscape:window-maximized="0"
     inkscape:current-layer="g104990" /><g
     id="g104990"
     inkscape:groupmode="layer"
     inkscape:label="logo-custom-object-6-publicdomainvectors.org"
     transform="matrix(1.3333333,0,0,-1.3333333,0,800)"><g
       id="g104992"><g
         id="g104994"
         clip-path="url(#clipPath104998)"><path
           d="m 443.042,206.642 c -12.46,-14.008 -24.328,-27.666 -35.686,-41.022 -0.743,9.168 -1.747,17.404 -2.989,24.786 -0.776,4.617 -1.796,8.662 -3.032,12.111 -1.017,6.012 -2.708,10.574 -4.985,13.765 -2.951,3.975 -6.401,6.553 -10.268,7.814 -2.044,0.527 -11.957,-1.21 -12.548,-1.903 -2.6,-0.639 -4.646,-1.716 -6.146,-3.203 -2.673,-3.051 -4.345,-7.007 -4.85,-11.949 -0.352,-3.908 0.535,-8.689 2.695,-14.379 0.681,-3.609 1.878,-7.61 3.544,-11.973 2.684,-6.994 6.008,-14.614 10.019,-22.866 -16.543,5.719 -33.729,11.443 -51.58,17.162 -12.171,3.927 -24.503,7.656 -37.028,11.185 -11.604,3.7 -23.333,7.207 -35.186,10.475 l 11.803,-23.573 c 13.311,-3.517 26.2,-7.022 38.691,-10.537 28.469,-7.988 55.266,-16.069 80.599,-24.243 4.926,-1.592 9.829,-3.181 14.696,-4.808 3.372,3.877 6.788,7.745 10.22,11.612 17.675,19.914 36.63,40.502 57.068,61.85 8.985,9.387 18.313,18.97 27.985,28.767 l -1.862,26.296 c -8.521,-8.84 -16.835,-17.815 -24.951,-26.915 -8.995,-9.412 -17.709,-18.898 -26.209,-28.452"
           style="fill:#f3f0d4;fill-opacity:1;fill-rule:nonzero;stroke:none"
           id="path105000"
           inkscape:connector-curvature="0" /><path
           d="m 260.059,157.934 c -18.358,3.781 -36.121,7.235 -53.364,10.391 7.567,5.227 14.196,10.212 19.969,14.982 3.612,2.985 6.604,5.889 8.97,8.678 4.7,3.89 7.805,7.637 9.432,11.205 1.967,4.541 2.473,8.822 1.634,12.796 -0.566,2.031 -7.026,9.753 -7.926,9.918 -1.853,1.932 -3.806,3.164 -5.846,3.721 -3.979,0.785 -8.238,0.258 -12.775,-1.776 -3.555,-1.646 -7.255,-4.808 -11.1,-9.524 -2.786,-2.393 -5.653,-5.429 -8.602,-9.053 -4.708,-5.822 -9.646,-12.513 -14.792,-20.111 -3.317,17.188 -6.949,34.929 -10.925,53.252 -2.684,12.503 -5.621,25.046 -8.826,37.654 -2.6,11.904 -5.425,23.814 -8.524,35.711 l -14.512,-22.006 c 3.607,-13.289 7.02,-26.202 10.219,-38.776 7.315,-28.646 13.715,-55.895 19.305,-81.924 1.087,-5.058 2.161,-10.098 3.187,-15.129 5.043,-0.981 10.099,-2.005 15.163,-3.044 26.084,-5.348 53.392,-11.471 82.099,-18.497 12.622,-3.089 25.588,-6.376 38.908,-9.854 l 21.84,14.76 c -11.916,2.962 -23.849,5.675 -35.786,8.154 -12.648,3.083 -25.219,5.885 -37.748,8.472"
           style="fill:#758b8b;fill-opacity:1;fill-rule:nonzero;stroke:none"
           id="path105002"
           inkscape:connector-curvature="0" /><path
           d="m 126.39,292.044 c -5.906,17.789 -11.797,34.897 -17.684,51.408 8.313,-3.936 15.945,-7.183 22.962,-9.799 4.388,-1.636 8.4,-2.773 12.002,-3.428 5.717,-2.126 10.511,-2.946 14.416,-2.565 4.92,0.566 8.876,2.265 11.898,4.983 1.477,1.505 4.931,10.956 4.627,11.82 0.75,2.571 0.842,4.881 0.302,6.925 -1.313,3.839 -3.9,7.264 -7.926,10.175 -3.205,2.255 -7.795,3.879 -13.8,4.852 -3.464,1.217 -7.529,2.179 -12.139,2.92 -7.398,1.169 -15.662,2.1 -24.814,2.755 13.225,11.472 26.775,23.484 40.655,36.085 9.485,8.581 18.879,17.395 28.195,26.477 9.009,8.202 17.913,16.601 26.667,25.235 l -26.318,1.562 c -9.701,-9.764 -19.177,-19.177 -28.465,-28.237 -21.156,-20.657 -41.551,-39.825 -61.297,-57.678 -3.839,-3.47 -7.665,-6.92 -11.51,-10.323 1.672,-4.859 3.311,-9.753 4.944,-14.656 8.409,-25.265 16.76,-51.974 25.032,-80.348 3.634,-12.475 7.274,-25.345 10.917,-38.621 l 23.706,-11.535 c -3.393,11.799 -7.013,23.486 -10.832,35.069 -3.655,12.495 -7.516,24.779 -11.538,36.924"
           style="fill:#56433f;fill-opacity:1;fill-rule:nonzero;stroke:none"
           id="path105004"
           inkscape:connector-curvature="0" /><path
           d="m 175.697,474.863 c 12.457,14.006 24.329,27.664 35.683,41.021 0.744,-9.168 1.747,-17.405 2.99,-24.787 0.776,-4.617 1.798,-8.662 3.032,-12.11 1.016,-6.012 2.706,-10.575 4.988,-13.765 2.95,-3.979 6.4,-6.553 10.264,-7.815 2.043,-0.527 4.36,-0.4 6.918,0.366 0.858,-0.299 10.28,3.25 11.779,4.741 2.67,3.05 4.341,7.007 4.85,11.948 0.349,3.906 -0.537,8.691 -2.698,14.379 -0.677,3.606 -1.878,7.611 -3.543,11.973 -2.686,6.995 -6.009,14.615 -10.019,22.867 16.546,-5.72 33.727,-11.442 51.583,-17.162 12.166,-3.928 24.5,-7.655 37.023,-11.186 11.608,-3.699 23.334,-7.207 35.186,-10.474 l -11.801,23.572 c -13.308,3.518 -26.201,7.023 -38.692,10.538 -28.466,7.989 -55.266,16.069 -80.599,24.243 -4.925,1.588 -9.825,3.181 -14.697,4.808 -3.371,-3.877 -6.783,-7.748 -10.215,-11.612 -17.675,-19.915 -36.632,-40.503 -57.072,-61.85 -8.986,-9.387 -18.309,-18.972 -27.986,-28.768 l 1.862,-26.295 c 8.526,8.84 16.839,17.815 24.955,26.915 8.993,9.412 17.705,18.898 26.209,28.453"
           style="fill:#e54039;fill-opacity:1;fill-rule:nonzero;stroke:none"
           id="path105006"
           inkscape:connector-curvature="0" /><path
           d="m 358.675,523.569 c 18.36,-3.78 36.123,-7.235 53.365,-10.39 -7.569,-5.227 -14.197,-10.212 -19.969,-14.983 -3.612,-2.984 -6.602,-5.887 -8.969,-8.681 -4.701,-3.886 -7.808,-7.633 -9.431,-11.201 -1.968,-4.544 -2.477,-8.821 -1.634,-12.796 0.565,-2.035 7.026,-9.753 7.924,-9.919 1.853,-1.931 3.808,-3.167 5.845,-3.723 3.978,-0.782 8.243,-0.255 12.774,1.778 3.56,1.647 7.258,4.808 11.103,9.524 2.787,2.393 5.652,5.431 8.598,9.053 4.713,5.823 9.652,12.514 14.795,20.112 3.318,-17.189 6.953,-34.932 10.926,-53.251 2.686,-12.504 5.62,-25.047 8.827,-37.659 2.599,-11.901 5.425,-23.81 8.523,-35.708 l 14.512,22.005 c -3.607,13.287 -7.019,26.204 -10.222,38.775 -7.312,28.65 -13.715,55.898 -19.301,81.924 -1.087,5.058 -2.162,10.102 -3.185,15.132 -5.046,0.981 -10.102,2.004 -15.167,3.041 -26.082,5.351 -53.391,11.474 -82.098,18.5 -12.622,3.089 -25.587,6.374 -38.905,9.854 l -21.843,-14.76 c 11.917,-2.962 23.845,-5.675 35.787,-8.154 12.648,-3.083 25.218,-5.885 37.745,-8.473"
           style="fill:#efa038;fill-opacity:1;fill-rule:nonzero;stroke:none"
           id="path105008"
           inkscape:connector-curvature="0" /><path
           d="m 492.347,389.459 c 5.904,-17.792 11.796,-34.896 17.684,-51.409 -8.314,3.938 -15.946,7.186 -22.96,9.801 -4.39,1.636 -8.4,2.771 -12.005,3.429 -5.715,2.126 -10.511,2.945 -14.417,2.564 -4.916,-0.566 -8.875,-2.266 -11.897,-4.983 -1.478,-1.507 -4.932,-10.96 -4.626,-11.821 -0.747,-2.57 -0.839,-4.881 -0.302,-6.924 1.312,-3.839 3.899,-7.263 7.924,-10.176 3.207,-2.254 7.795,-3.878 13.801,-4.851 3.468,-1.217 7.532,-2.18 12.142,-2.92 7.399,-1.173 15.661,-2.101 24.812,-2.755 -13.227,-11.473 -26.774,-23.487 -40.656,-36.087 -9.482,-8.579 -18.878,-17.394 -28.195,-26.475 -9.008,-8.203 -17.91,-16.604 -26.664,-25.235 l 26.315,-1.566 c 9.701,9.768 19.176,19.18 28.468,28.237 21.154,20.661 41.551,39.829 61.295,57.681 3.838,3.469 7.667,6.922 11.512,10.324 -1.672,4.859 -3.314,9.753 -4.948,14.652 -8.408,25.269 -16.758,51.978 -25.029,80.352 -3.636,12.475 -7.275,25.345 -10.919,38.62 l -23.703,11.536 c 3.391,-11.799 7.01,-23.49 10.833,-35.069 3.651,-12.495 7.511,-24.782 11.535,-36.925"
           style="fill:#55b8c2;fill-opacity:1;fill-rule:nonzero;stroke:none"
           id="path105010"
           inkscape:connector-curvature="0" /></g></g></g></svg>